<?xml version="1.0" encoding="utf-8"?>
<!-- Generator: Adobe Illustrator 25.0.1, SVG Export Plug-In . SVG Version: 6.00 Build 0)  -->
<svg version="1.1" id="Layer_1" xmlns="http://www.w3.org/2000/svg" xmlns:xlink="http://www.w3.org/1999/xlink" x="0px" y="0px"
	 viewBox="0 0 500 500" style="enable-background:new 0 0 500 500;" xml:space="preserve">
<style type="text/css">
	.st0{fill:#92E3A9;}
	.st1{opacity:0.7;fill:#356309;enable-background:new    ;}
	.st2{fill:#263238;stroke:#263238;stroke-width:1.193;stroke-linecap:round;stroke-linejoin:round;}
	.st3{fill:#FFFFFF;stroke:#263238;stroke-width:1.193;stroke-linecap:round;stroke-linejoin:round;}
	.st4{fill:none;stroke:#FFFFFF;stroke-width:1.193;stroke-linecap:round;stroke-linejoin:round;}
	.st5{fill:none;stroke:#263238;stroke-width:1.193;stroke-linecap:round;stroke-linejoin:round;}
	.st6{fill:#263238;}
	.st7{fill:#92E3A9;stroke:#263238;stroke-width:1.193;stroke-linecap:round;stroke-linejoin:round;}
	.st8{fill:#757575;stroke:#263238;stroke-width:1.193;stroke-linecap:round;stroke-linejoin:round;}
	.st9{fill:none;stroke:#263238;stroke-width:1.193;stroke-miterlimit:10;}
	.st10{clip-path:url(#SVGID_2_);}
	.st11{opacity:0.18;enable-background:new    ;}
	.st12{fill:#FFFFFF;}
	.st13{clip-path:url(#SVGID_4_);}
	.st14{opacity:0.5;fill:#FFFFFF;enable-background:new    ;}
	.st15{clip-path:url(#SVGID_6_);}
	.st16{opacity:0.3;fill:#EF5252;enable-background:new    ;}
	.st17{fill:#757575;}
	.st18{clip-path:url(#SVGID_8_);}
	.st19{opacity:0.3;enable-background:new    ;}
	.st20{opacity:0.3;fill:#EFC54D;enable-background:new    ;}
	.st21{clip-path:url(#SVGID_10_);}
	.st22{fill:#F9F9F9;}
</style>
<path class="st0" d="M44.3,258.1c0,0,2.3,73,63.3,121.6s145.3,52.1,213.6,56.7S442,402.4,450,344s-44.3-75.6-72.6-142.2
	s-25.8-88.4-85.8-129.4S137.9,56.6,88.7,126.7S44.3,258.1,44.3,258.1z"/>
<path class="st1" d="M44.3,258.1c0,0,2.3,73,63.3,121.6s145.3,52.1,213.6,56.7S442,402.4,450,344s-44.3-75.6-72.6-142.2
	s-25.8-88.4-85.8-129.4S137.9,56.6,88.7,126.7S44.3,258.1,44.3,258.1z"/>
<g id="freepik--Hole--inject-15">
	<ellipse class="st2" cx="341.5" cy="385.8" rx="72.2" ry="21.4"/>
	<path class="st3" d="M341.5,374.2c34.1,0,62.8,7,70.3,16.5c1.2-1.4,1.9-3.1,1.9-4.9c0-11.8-32.3-21.4-72.2-21.4
		s-72.2,9.6-72.2,21.4c0.1,1.8,0.8,3.5,1.9,4.9C278.7,381.3,307.3,374.2,341.5,374.2z"/>
	<path class="st4" d="M331.6,404.5c-24.1-1.1-42.3-6-42.3-12c0-0.7,0.2-1.3,0.6-1.8"/>
	<path class="st4" d="M387.6,386.7c4.1,1.8,6.5,3.8,6.5,5.9c0,6.7-23.5,12.2-52.4,12.2h-1.2"/>
	<path class="st4" d="M296.4,386.5c9.1-3.6,26-6.1,45.3-6.1c11-0.1,22,0.8,32.8,2.7"/>
	<path class="st4" d="M330.9,396.7c-6.1-0.9-10.2-2.4-10.2-4.2c0-2.7,9.4-4.9,21-4.9s21,2.2,21,4.9c0,2.3-6.9,4.2-16.2,4.7"/>
</g>
<g id="freepik--Landscape--inject-15">
	<path class="st5" d="M51.5,299.7c31.5-9,97.8-26.6,134.3-27.9c49.2-1.7,132.2,33.9,184,40.2s86.6,4.5,86.6,4.5"/>
	<path class="st5" d="M34,304.8c0,0,2.7-0.8,7.5-2.2"/>
	<path class="st5" d="M442.5,249.1c-18.2-4-36.7-5.7-55.3-5.2c-38.4,1.3-80,6.4-131.4,13c-51.4,6.6-124.6-30-174.4-16.4
		s-46,17.7-46,17.7"/>
	<path class="st5" d="M456.6,252.8c0,0-1.9-0.6-5.5-1.6"/>
</g>
<g id="freepik--Clouds--inject-15">
	<path class="st0" d="M364.5,158.4c-1.4-5.6-7-8.9-12.5-7.6c-3.7,0.9-6.7,3.8-7.6,7.6H364.5z"/>
	<path class="st0" d="M466,158.4c-1.2-5.2-5.6-9.2-11-9.8c3.1-16.3-7.6-32-23.9-35.1c-1.9-0.4-3.8-0.5-5.7-0.5
		c-14.6,0-27,10.4-29.6,24.8c-8.4-6.5-20.4-5.1-27,3.3c-2.6,3.4-4.1,7.6-4.1,11.9c0,1.8,0.3,3.7,0.8,5.4L466,158.4z"/>
	<path class="st0" d="M185.6,182.5c-0.7-2.8-3.5-4.6-6.3-3.9c-1.9,0.5-3.4,2-3.9,3.9H185.6z"/>
	<path class="st0" d="M237.1,182.5c-0.6-2.7-2.9-4.7-5.6-5c2-8.2-3.1-16.4-11.3-18.4c-8.2-2-16.4,3.1-18.4,11.3
		c-0.1,0.5-0.2,1.1-0.3,1.6c-4.2-3.3-10.4-2.6-13.7,1.7c-1.3,1.7-2.1,3.8-2.1,6c0,0.9,0.1,1.9,0.4,2.8L237.1,182.5z"/>
	<path class="st0" d="M231.9,198.6c-0.4-1.8-2.2-2.9-4-2.5c-1.2,0.3-2.2,1.2-2.5,2.5H231.9z"/>
	<path class="st0" d="M264.5,198.6c-0.4-1.7-1.8-2.9-3.5-3.1c0.1-0.6,0.2-1.2,0.2-1.8c-0.1-5.3-4.4-9.6-9.8-9.5
		c-4.6,0.1-8.5,3.3-9.3,7.8c-2.7-2.1-6.6-1.6-8.6,1.1c-0.8,1.1-1.3,2.4-1.3,3.8c0,0.6,0.1,1.2,0.2,1.7L264.5,198.6z"/>
</g>
<path class="st6" d="M162.6,313.8c-0.4,0-0.7-0.1-1-0.3c-0.9-0.6-1.2-1.7-0.7-2.7c0.5-0.9,124.1-135.7,180.7-185.1
	c0.4-0.3,1-0.3,1.4,0.1c0.3,0.4,0.3,1-0.1,1.4C286.6,176.5,164.8,312,164.3,312.9C164,313.5,163.3,313.8,162.6,313.8z"/>
<path class="st7" d="M169.5,287c0,0,6.1-6.5,9.8-6.5s10.6,6.1,10.2,9.4s-6.5,0.4-6.5,0.4s-5.7,7.8-11.4,6.5S169.5,287,169.5,287z"/>
<path class="st7" d="M183,290.2c0,0,3.8,2.6,4.1,4.4s-4.2,7-9.1,8.2s-7.7-1.7-6.2-4.3S179.2,290.5,183,290.2z"/>
<path class="st5" d="M337,266.6V131.3c0,0-2.7,9.8-2.7,10.5"/>
<rect x="289.7" y="273.7" class="st0" width="103.7" height="83.1"/>
<path class="st6" d="M338.5,273.3v-4.8c0-0.7-0.5-1.2-1.2-1.2s-1.2,0.5-1.2,1.2v4.8H338.5z"/>
<path class="st6" d="M348,261.8v0.2c-0.2-0.4-0.6-0.6-1-0.6c-0.7,0-1.2,0.5-1.2,1.2v0v12.7c0,2-1.6,3.7-3.7,3.7
	c-0.5,0-1-0.1-1.5-0.3c-0.5,0.8-0.4,1.9,0.3,2.6c0.4,0.1,0.8,0.1,1.2,0.1c3.3,0,6-2.7,6-6v-5.9h2.7L348,261.8z"/>
<path class="st5" d="M337.1,130c0,0,2.1-7.5,0.2-6.8S337.1,130,337.1,130z"/>
<path class="st5" d="M337.1,130c0,0-8-2.8-7.3-0.2C330.5,132.3,337.1,130,337.1,130z"/>
<path class="st2" d="M164.6,195.6c0,0-9.9-5.5-29.2-2.8s-23.1,18.7-19.9,35.3s21.5,30.6,24.2,29.5s-0.8-38.3,5.5-45.4
	s26.9-5.9,28-11.4S164.6,195.6,164.6,195.6z"/>
<path class="st8" d="M130.2,205.5l2,13.1c0,0-12.4,33.9-10.4,38.5s20.8,6.4,20.8,6.4s30.5,3.7,39.6,0s4.4-14.4,3.4-17.4
	s-6.7-27.1-6.7-27.1s2-5.7,2-8.7s-0.3-11.4-1.7-13.4s-24.8-4.4-35.2-2.7S128.8,198.4,130.2,205.5z"/>
<path class="st3" d="M135.6,220.6c0,0-0.3,29.1,1.3,34.9s8.4,12.4,22.4,10.7s15.4-15.1,15.4-15.1l-1-31.2L135.6,220.6z"/>
<path class="st9" d="M159.7,241.5c0,1.4-1.1,2.5-2.5,2.5c-1.4,0-2.5-1.1-2.5-2.5c0-1.4,1.1-2.5,2.5-2.5c0,0,0,0,0,0
	C158.5,239,159.7,240.1,159.7,241.5C159.7,241.5,159.7,241.5,159.7,241.5z"/>
<path class="st6" d="M159.3,252.1c0,0.9-0.8,1.7-1.7,1.7s-1.7-0.8-1.7-1.7s0.8-1.7,1.7-1.7c0,0,0,0,0,0
	C158.6,250.4,159.3,251.1,159.3,252.1C159.3,252.1,159.3,252.1,159.3,252.1z"/>
<path class="st6" d="M149.2,230.8c1.1,1.2,1.4,2.6,0.8,3.1s-2,0.1-3.1-1.1s-1.4-2.5-0.8-3.1S148.1,229.6,149.2,230.8z"/>
<path class="st6" d="M162.8,230.8c-1.1,1.2-1.4,2.6-0.8,3.1s2,0.1,3-1.1s1.4-2.5,0.8-3.1S163.9,229.6,162.8,230.8z"/>
<path class="st5" d="M142.1,226.8c1.5-2.3,4.4-3.3,7-2.6"/>
<path class="st5" d="M162.3,224.6c0,0,4.8-1.5,6.3,2.6"/>
<path class="st2" d="M178.4,411.6c0,0,5.3-3.2,8.2-4.4c0.3-0.1,0.6-0.2,0.8-0.3c2.6-0.9,9.9-0.4,16.8-4.7s3.4-9.5-1.7-10.8
	s-10.7-3-10.7-3l-1.3-20.2c0,0-15.5,4.3-20.6,6.5s-2.1,32.7-1.7,35.2S168.6,414.2,178.4,411.6z"/>
<path class="st3" d="M195.6,402.2c-9,1.7-9,3.4-18.9,5.2c-2.9,0.6-5.9,0.8-8.8,0.7c0.1,0.9,0.2,1.6,0.2,1.9
	c0.4,2.6,0.4,4.3,10.3,1.7c0,0,5.3-3.2,8.2-4.4c0.3-0.1,0.6-0.2,0.8-0.3c2.6-0.9,9.9-0.4,16.8-4.7c2.2-1.4,3.3-2.8,3.7-4.2
	C204,399.8,199.9,401.3,195.6,402.2z"/>
<path class="st2" d="M199.2,391.1c0,0-0.3,23.5-1,28.5s0.3,11.4,8,11.4s22.8-5,28.1-6s14.1-3.4,17.8-11.7s-18.8-7.4-18.8-7.4
	l1.3-17.1C234.7,388.8,211.6,393.5,199.2,391.1z"/>
<path class="st3" d="M252.2,413.3c0.4-0.8,0.5-1.7,0.3-2.6c-2.3,3.1-5.4,5.5-9,7c-8,3.4-23.1,7-34.5,8.7c-5.2,0.8-8.5-0.1-10.6-1.2
	c0.7,3.2,2.9,5.9,7.9,5.9c7.7,0,22.8-5,28.1-6S248.5,421.6,252.2,413.3z"/>
<path class="st4" d="M233.4,405.9c0,0,1.7,5.7-3,9.4"/>
<path class="st8" d="M196.9,378.8c0,0-0.5,10.2,0.1,12.2c2.1,7.7,2.8,5.9,18.9,5.6s22.6-6.8,24.3-10.8s0-12.7-0.7-15.8s-6-4-8.1-3.7
	S197.9,375.4,196.9,378.8z"/>
<path class="st0" d="M86.3,404.2v22.5c0,1.8,1,3.4,2.6,4.3l36.2,18.7c1.3,0.7,2.8,0.7,4.2,0.1l53.3-20.3c1.7-0.8,2.9-2.5,2.9-4.4
	v-27.2l-61,18.4L86.3,404.2z"/>
<g>
	<defs>
		<path id="SVGID_1_" d="M86.3,404.2v22.5c0,1.8,1,3.4,2.6,4.3l36.2,18.7c1.3,0.7,2.8,0.7,4.2,0.1l53.3-20.3
			c1.7-0.8,2.9-2.5,2.9-4.4v-27.2l-61,18.4L86.3,404.2z"/>
	</defs>
	<clipPath id="SVGID_2_">
		<use xlink:href="#SVGID_1_"  style="overflow:visible;"/>
	</clipPath>
	<g class="st10">
		<path class="st11" d="M127.2,415.5l-2.7,0.8l-38.2-12.1v22.5c0,1.8,1,3.4,2.6,4.3l36.2,18.7c0.6,0.3,1.3,0.5,2.1,0.5L127.2,415.5z
			"/>
	</g>
</g>
<path class="st5" d="M86.3,404.2v22.5c0,1.8,1,3.4,2.6,4.3l36.2,18.7c1.3,0.7,2.8,0.7,4.2,0.1l53.3-20.3c1.7-0.8,2.9-2.5,2.9-4.4
	v-27.2l-61,18.4L86.3,404.2z"/>
<path class="st12" d="M142,366.2L83.5,385c-0.9,0.3-1.6,1.2-1.6,2.2v16.7c0,0.9,0.5,1.6,1.3,2l40.8,19.4c0.6,0.3,1.2,0.3,1.8,0.1
	l61.2-22.9c0.9-0.3,1.5-1.2,1.5-2.1l0.1-15.6c0-1.1-0.7-2-1.8-2.2l-43.6-16.3C142.8,366.1,142.4,366.1,142,366.2z"/>
<g>
	<defs>
		<path id="SVGID_3_" d="M142,366.2L83.5,385c-0.9,0.3-1.6,1.2-1.6,2.2v16.7c0,0.9,0.5,1.6,1.3,2l40.8,19.4c0.6,0.3,1.2,0.3,1.8,0.1
			l61.2-22.9c0.9-0.3,1.5-1.2,1.5-2.1l0.1-15.6c0-1.1-0.7-2-1.8-2.2l-43.6-16.3C142.8,366.1,142.4,366.1,142,366.2z"/>
	</defs>
	<clipPath id="SVGID_4_">
		<use xlink:href="#SVGID_3_"  style="overflow:visible;"/>
	</clipPath>
	<g class="st13">
		<path class="st0" d="M123.9,425.2L123.9,425.2c0.6,0.3,1.2,0.3,1.8,0.1l61.3-22.9c0.9-0.3,1.5-1.2,1.5-2.1l0.1-15.6
			c0-0.5-0.2-1-0.5-1.5l-63.2,23.4L123.9,425.2z"/>
		<path class="st14" d="M123.9,425.2L123.9,425.2c0.6,0.3,1.2,0.3,1.8,0.1l61.3-22.9c0.9-0.3,1.5-1.2,1.5-2.1l0.1-15.6
			c0-0.5-0.2-1-0.5-1.5l-63.2,23.4L123.9,425.2z"/>
		<path class="st0" d="M81.9,387.1v16.7c0,0.9,0.5,1.6,1.3,2l40.8,19.5c0.3,0.1,0.6,0.2,0.9,0.2v-18.9L82,386.7
			C82,386.8,81.9,387,81.9,387.1z"/>
	</g>
</g>
<path class="st5" d="M142,366.2L83.5,385c-0.9,0.3-1.6,1.2-1.6,2.2v16.7c0,0.9,0.5,1.6,1.3,2l40.8,19.4c0.6,0.3,1.2,0.3,1.8,0.1
	l61.2-22.9c0.9-0.3,1.5-1.2,1.5-2.1l0.1-15.6c0-1.1-0.7-2-1.8-2.2l-43.6-16.3C142.8,366.1,142.4,366.1,142,366.2z"/>
<path class="st2" d="M222.4,335.5c0,0,7.7,3.7,11.7,11.1s1,21.4-1.4,25.8s-18.1,6.4-23.4,6.4s-6.4-0.7-6.4-0.7s-17.1,3.4-27.8,5.4
	s-8-23.1-4.7-34.5s22.1-17.1,29.8-17.1S222.4,335.5,222.4,335.5z"/>
<path class="st4" d="M202.9,378.1c0,0,14.4-5,20.4-17.8"/>
<path class="st4" d="M216.6,370.7c4.6-1.9,8.9-4.8,12.4-8.4"/>
<path class="st8" d="M182.8,346.6c0,0,4,21.1,2,29.8s-13.7,10.1-16.4,9s-1.3-21.8-1.3-32.2S177.4,343.6,182.8,346.6z"/>
<path class="st0" d="M97.3,290.3c0,0-2.3,13.7-0.7,20.5c0.9,3.7,2.4,7.3,4.7,10.4c0,0-8.4,12.4-6.7,22.8s6,11.7,6,11.7
	s-3.7,19.1,3,25.8s21.4,14.1,37.9,11.1s27.5-3.7,30.8-9.4s1.3-30.8,1.3-30.8s-0.7-27.8-1.3-44.9s-3-30.8-11.1-37.5
	s-43.6,3.7-54.3,10.7S97.3,290.3,97.3,290.3z"/>
<g>
	<defs>
		<path id="SVGID_5_" d="M97.3,290.3c0,0-2.3,13.7-0.7,20.5c0.9,3.7,2.4,7.3,4.7,10.4c0,0-8.4,12.4-6.7,22.8s6,11.7,6,11.7
			s-3.7,19.1,3,25.8s21.4,14.1,37.9,11.1s27.5-3.7,30.8-9.4s1.3-30.8,1.3-30.8s-0.7-27.8-1.3-44.9s-3-30.8-11.1-37.5
			s-43.6,3.7-54.3,10.7S97.3,290.3,97.3,290.3z"/>
	</defs>
	<use xlink:href="#SVGID_5_"  style="overflow:visible;fill:#EF5252;"/>
	<clipPath id="SVGID_6_">
		<use xlink:href="#SVGID_5_"  style="overflow:visible;"/>
	</clipPath>
	<g class="st15">
		<path class="st16" d="M99.7,290.3c0,0-2.3,13.7-0.7,20.5c0.8,3.7,2.4,7.3,4.7,10.4c0,0-8.4,12.4-6.7,22.8s6,11.7,6,11.7
			s-3.7,19.1,3,25.8s21.5,14.1,37.9,11.1s27.5-3.7,30.8-9.4s1.3-30.8,1.3-30.8s-0.7-27.8-1.3-44.9s-3-30.8-11.1-37.5
			s-43.6,3.7-54.3,10.7S99.7,290.3,99.7,290.3z"/>
	</g>
</g>
<path class="st5" d="M97.3,290.3c0,0-2.3,13.7-0.7,20.5c0.9,3.7,2.4,7.3,4.7,10.4c0,0-8.4,12.4-6.7,22.8s6,11.7,6,11.7
	s-3.7,19.1,3,25.8s21.4,14.1,37.9,11.1s27.5-3.7,30.8-9.4s1.3-30.8,1.3-30.8s-0.7-27.8-1.3-44.9s-3-30.8-11.1-37.5
	s-43.6,3.7-54.3,10.7S97.3,290.3,97.3,290.3z"/>
<path class="st5" d="M101.4,321.1c10.5,7.2,23.8,9,35.9,5"/>
<path class="st5" d="M100.7,355.6c0,0,17.1,16.8,45.2,0.7"/>
<path class="st17" d="M167.4,273.9c0,0-6.4-9.7-15.1-15.1s-31.2-9.4-40.2-11.1s-18.8-1-21.5,9s-2.3,26.8,0.3,34.2
	s13.7,11.7,22.5,6.7s32.8-24.5,41.2-25.5S166.7,277.5,167.4,273.9z"/>
<g>
	<defs>
		<path id="SVGID_7_" d="M167.4,273.9c0,0-6.4-9.7-15.1-15.1s-31.2-9.4-40.2-11.1s-18.8-1-21.5,9s-2.3,26.8,0.3,34.2
			s13.7,11.7,22.5,6.7s32.8-24.5,41.2-25.5S166.7,277.5,167.4,273.9z"/>
	</defs>
	<clipPath id="SVGID_8_">
		<use xlink:href="#SVGID_7_"  style="overflow:visible;"/>
	</clipPath>
	<g class="st18">
		<path class="st19" d="M148.8,272c5.1-2.1-7.7,1.7-8.5,0.4s8.9-7.7,11.1-8.5s-12.4,2.1-11.9,0s14.1-2.6,4.7-4.7s-40-7.7-46-9.8
			c-0.5-0.1-0.9-0.4-1.3-0.6c-3.1,1.6-5.4,4.6-6.2,8c-2.7,10-2.3,26.8,0.3,34.2c2.3,6.4,11,10.5,19,8.2c3.7-3,7.1-6.9,12.9-10.6
			C134.3,281.3,143.7,274.1,148.8,272z"/>
	</g>
</g>
<path class="st5" d="M167.4,273.9c0,0-6.4-9.7-15.1-15.1s-31.2-9.4-40.2-11.1s-18.8-1-21.5,9s-2.3,26.8,0.3,34.2s13.7,11.7,22.5,6.7
	s32.8-24.5,41.2-25.5S166.7,277.5,167.4,273.9z"/>
<path class="st7" d="M203.6,319.4c0,0,7.7,1,12.7,3s8.4,14.4,6.4,16.1s-6-0.3-6-0.3c-3.2,1.1-6.4,1.9-9.7,2.3
	C202.9,340.9,198.6,321.8,203.6,319.4z"/>
<path class="st8" d="M178.1,318.4c0,0,1.3,0,8.7-3.4s13.4-3.4,18.1,4s6.7,16.4,4,21.8s-12.7,9-18.1,9s-6-7-6-7s-0.7-11.1-4-15.1
	S176.8,319.4,178.1,318.4z"/>
<path class="st20" d="M153.3,273.9c7.4-2.7,16.8-1,20.1,8.4s6.4,36.9,6.4,36.9s8.4,1,11.7,4.7s5,13.1,4.4,17.8s-12.4,13.4-25.8,13.7
	s-23.1-6-27.8-23.1s-2.8-43.2-2.8-43.2s1.7-7.7,4.3-9.4"/>
<g>
	<defs>
		<path id="SVGID_9_" d="M153.3,273.9c7.4-2.7,16.8-1,20.1,8.4s6.4,36.9,6.4,36.9s8.4,1,11.7,4.7s5,13.1,4.4,17.8
			s-12.4,13.4-25.8,13.7s-23.1-6-27.8-23.1s-2.8-43.2-2.8-43.2s1.7-7.7,4.3-9.4"/>
	</defs>
	<clipPath id="SVGID_10_">
		<use xlink:href="#SVGID_9_"  style="overflow:visible;"/>
	</clipPath>
	<g class="st21">
		<path class="st19" d="M195.9,341.5c0.7-4.7-1-14.1-4.4-17.8c-0.1-0.1-0.3-0.3-0.4-0.4c0.4,3,0.6,6,0.7,9.1
			c0.7,19.7-26.8,16.4-32.4,2.1c-3-7.7-3.8-41.3-12.8-43.9c-5.2-1.5-6.9,2.6-7.5,6.3c-0.2,9.6,0.1,24.5,3.1,35.2
			c4.7,17.1,14.4,23.5,27.8,23.1S195.2,346.2,195.9,341.5z"/>
	</g>
</g>
<path class="st5" d="M153.3,273.9c7.4-2.7,16.8-1,20.1,8.4s6.4,36.9,6.4,36.9s8.4,1,11.7,4.7s5,13.1,4.4,17.8s-12.4,13.4-25.8,13.7
	s-23.1-6-27.8-23.1s-2.8-43.2-2.8-43.2s1.7-7.7,4.3-9.4"/>
<path class="st5" d="M179.8,319.1c0,0,2.6,12.2-10.8,18.9"/>
<path class="st22" d="M113.1,106.2c0-2.8,1.3-4.8,4.2-4.8s4.2,2,4.2,4.8v9.8c0,2.8-1.3,4.8-4.2,4.8s-4.2-2-4.2-4.8V106.2z
	 M114.3,116.1c0,2.1,0.8,3.6,2.9,3.6s3-1.5,3-3.6v-9.9c0-2.1-0.8-3.6-3-3.6s-2.9,1.5-2.9,3.6V116.1z"/>
<path class="st22" d="M123.5,106.2c0-2.8,1.3-4.8,4.2-4.8c2.9,0,4.2,2,4.2,4.8v9.8c0,2.8-1.3,4.8-4.2,4.8s-4.2-2-4.2-4.8V106.2z
	 M124.7,116.1c0,2.1,0.8,3.6,2.9,3.6s3-1.5,3-3.6v-9.9c0-2.1-0.8-3.6-3-3.6s-2.9,1.5-2.9,3.6L124.7,116.1z"/>
<path class="st22" d="M137.9,101.6c2.9,0,4.1,1.8,4.1,4.6v2.1c0,3-1.4,4.5-4.4,4.5h-2.4v7.9H134v-19.1H137.9z M137.6,111.7
	c2.2,0,3.2-1,3.2-3.3v-2.2c0-2.1-0.7-3.4-2.8-3.4h-2.7v9L137.6,111.7z"/>
<path class="st22" d="M151.9,106.2v0.4h-1.2v-0.5c0-2-0.8-3.5-2.8-3.5s-2.8,1.5-2.8,3.5c0,4.6,6.9,4.7,6.9,10c0,2.8-1.2,4.8-4.1,4.8
	s-4.1-2-4.1-4.8v-1h1.2v1.1c0,2,0.8,3.5,2.9,3.5s2.9-1.5,2.9-3.5c0-4.6-6.9-4.7-6.9-10c0-2.9,1.2-4.7,4.1-4.8
	S151.9,103.4,151.9,106.2z"/>
<path class="st22" d="M155.1,118.3v2.4h-1.2v-2.4H155.1z"/>
<path class="st22" d="M158.5,118.3v2.4h-1.2v-2.4H158.5z"/>
<path class="st22" d="M161.9,118.3v2.4h-1.2v-2.4H161.9z"/>
<path class="st22" d="M117.1,129.4c3,0,4.1,1.9,4.1,4.6v2.1c0,3-1.4,4.5-4.4,4.5h-2.4v7.9h-1.2v-19.1H117.1z M116.8,139.4
	c2.2,0,3.2-1,3.2-3.3v-2.2c0-2.1-0.7-3.4-2.8-3.4h-2.7v8.9H116.8z"/>
<path class="st22" d="M124.6,144.2l-1,4.2h-1.2l4.2-19.1h1.8l4.2,19.1h-1.2l-1-4.2H124.6z M124.8,143.1h5.6l-2.8-12.4L124.8,143.1z"
	/>
<path class="st22" d="M142.8,134v1.4h-1.2v-1.5c0-2-0.8-3.6-2.9-3.6s-2.9,1.6-2.9,3.6v9.9c0,2,0.8,3.6,2.9,3.6s2.9-1.5,2.9-3.6v-4.1
	H139v-1.1h3.7v5.2c0,2.8-1.2,4.8-4.1,4.8s-4.1-2.1-4.1-4.8V134c0-2.8,1.2-4.8,4.1-4.8S142.8,131.3,142.8,134z"/>
<path class="st22" d="M151.3,138.2v1.1h-5.2v8h6.3v1.1h-7.5v-19.1h7.5v1.1h-6.3v7.7H151.3z"/>
<path class="st22" d="M159.8,148.4h-1.1v-19.1h1.6l5.7,16.1v-16.1h1.1v19.1h-1.4l-6-17L159.8,148.4z"/>
<path class="st22" d="M169.3,134c0-2.8,1.3-4.8,4.2-4.8s4.2,2,4.2,4.8v9.8c0,2.8-1.3,4.8-4.2,4.8s-4.2-2-4.2-4.8V134z M170.5,143.9
	c0,2.1,0.8,3.6,2.9,3.6s3-1.5,3-3.6v-9.9c0-2.1-0.8-3.6-3-3.6s-2.9,1.5-2.9,3.6V143.9z"/>
<path class="st22" d="M183,148.4v-17.9h-3.9v-1.1h9v1.1h-3.9v17.9H183z"/>
<path class="st22" d="M200.1,138.7v1.1h-4.9v8.6h-1.2v-19.1h7.2v1.1h-6v8.1L200.1,138.7z"/>
<path class="st22" d="M203,134c0-2.8,1.3-4.8,4.2-4.8s4.2,2,4.2,4.8v9.8c0,2.8-1.3,4.8-4.2,4.8s-4.2-2-4.2-4.8V134z M204.2,143.9
	c0,2.1,0.8,3.6,2.9,3.6s3-1.5,3-3.6v-9.9c0-2.1-0.8-3.6-3-3.6s-2.9,1.5-2.9,3.6V143.9z"/>
<path class="st22" d="M214.6,143.8c0,2,0.8,3.6,2.9,3.6s2.9-1.6,2.9-3.6v-14.5h1.2v14.4c0,2.7-1.1,4.8-4.1,4.8s-4.1-2.1-4.1-4.8
	v-14.4h1.2V143.8z"/>
<path class="st22" d="M224.8,148.4h-1.1v-19.1h1.6l5.7,16.1v-16.1h1.1v19.1h-1.4l-6-17L224.8,148.4z"/>
<path class="st22" d="M238.6,129.4c2.9,0,4.2,1.9,4.2,4.8v9.6c0,2.8-1.3,4.8-4.2,4.8h-4.2v-19.1H238.6z M238.6,147.3
	c2.1,0,3-1.4,3-3.5v-9.7c0-2.1-0.9-3.5-3-3.5h-2.9v16.8H238.6z"/>
<path class="st2" d="M302,325.1l13.6-32.1h8.1v32.1h3.5v6.8h-3.5v8.6h-7.3v-8.6H302V325.1z M316.4,325.1v-17.9l-7.5,17.9H316.4z"/>
<path class="st2" d="M330.1,304.4c0-7.6,4-12,11.3-12s11.3,4.4,11.3,12v24.7c0,7.6-4,12-11.3,12s-11.3-4.4-11.3-12V304.4z
	 M337.5,329.6c0,3.4,1.5,4.7,3.9,4.7s3.9-1.3,3.9-4.7v-25.7c0-3.4-1.5-4.7-3.9-4.7s-3.9,1.3-3.9,4.7V329.6z"/>
<path class="st2" d="M355.8,325.1l13.6-32.1h8.1v32.1h3.5v6.8h-3.5v8.6h-7.3v-8.6h-14.4V325.1z M370.2,325.1v-17.9l-7.5,17.9H370.2z
	"/>
</svg>
